<svg width="973" height="973" viewBox="0 0 973 973" fill="none" xmlns="http://www.w3.org/2000/svg">
<circle cx="486.5" cy="486.5" r="486" fill="black" stroke="black"/>
<path d="M810.548 699.865C809.043 681.787 802.805 664.424 792.462 649.523C782.119 634.622 768.035 622.708 751.628 614.981L692.643 587.201L724.521 521.348C733.215 503.388 737.731 483.693 737.732 463.738C737.733 443.784 733.217 424.088 724.525 406.128L639.838 231.157C577.785 102.948 395.218 102.948 333.162 231.154L248.468 406.135C239.775 424.095 235.26 443.791 235.261 463.746C235.262 483.701 239.78 503.396 248.475 521.356L280.356 587.201L221.368 614.982C204.962 622.709 190.879 634.622 180.536 649.523C170.193 664.423 163.956 681.786 162.451 699.864L157.115 763.966C156.733 768.552 157.306 773.168 158.799 777.521C160.291 781.874 162.67 785.871 165.786 789.257C168.901 792.644 172.685 795.347 176.898 797.196C181.111 799.045 185.661 800 190.262 800H782.741C787.341 800 791.891 799.046 796.104 797.197C800.317 795.348 804.1 792.645 807.215 789.259C810.33 785.872 812.709 781.876 814.201 777.523C815.694 773.17 816.267 768.555 815.885 763.969L810.548 699.865ZM646.044 473.589C646.036 513.377 631.168 551.726 604.357 581.115C577.546 610.504 540.727 628.813 501.119 632.45V593.295C501.119 589.417 499.579 585.697 496.837 582.954C494.096 580.211 490.377 578.671 486.5 578.671C482.622 578.671 478.904 580.211 476.162 582.954C473.42 585.697 471.88 589.417 471.88 593.295V632.45C432.273 628.813 395.453 610.504 368.642 581.115C341.831 551.726 326.963 513.377 326.955 473.589V389.828C326.955 384.235 328.056 378.697 330.196 373.53C332.335 368.363 335.471 363.668 339.425 359.714C343.378 355.759 348.071 352.622 353.237 350.482C358.402 348.341 363.938 347.24 369.529 347.24H603.47C609.061 347.24 614.597 348.341 619.763 350.482C624.928 352.622 629.621 355.759 633.575 359.714C637.528 363.668 640.664 368.363 642.803 373.53C644.943 378.697 646.044 384.235 646.044 389.828V473.589Z" fill="#FFF9CA" fill-opacity="0.75"/>
<path d="M112.7 486.5V503L63.2 481V466.7L112.7 444.7V461.2L81.35 473.85L112.7 486.5ZM117.074 503L150.074 426H168.774L136.874 503H117.074ZM218.244 426C226.531 426 232.801 428.163 237.054 432.49C241.381 436.743 243.544 443.013 243.544 451.3V477.7C243.544 485.987 241.381 492.293 237.054 496.62C232.801 500.873 226.531 503 218.244 503H175.344V426H218.244ZM223.744 451.3C223.744 444.7 220.444 441.4 213.844 441.4H195.144V487.6H213.844C220.444 487.6 223.744 484.3 223.744 477.7V451.3ZM277.614 446.9V503H258.364V461.75H250.114V446.9H277.614ZM258.364 424.9H277.614V440.3H258.364V424.9ZM311.748 488.7C315.635 488.7 320.035 487.967 324.948 486.5V479.9H308.998C307.898 479.9 306.982 480.267 306.248 481C305.515 481.733 305.148 482.65 305.148 483.75V484.85C305.148 485.95 305.515 486.867 306.248 487.6C306.982 488.333 307.898 488.7 308.998 488.7H311.748ZM291.398 445.8C304.818 444.333 316.918 443.6 327.698 443.6C332.685 443.6 336.682 445.103 339.688 448.11C342.695 451.117 344.198 455.113 344.198 460.1V503H327.148L326.048 497.5C322.602 499.773 319.045 501.46 315.378 502.56C311.785 503.587 308.742 504.1 306.248 504.1H302.398C297.412 504.1 293.415 502.597 290.408 499.59C287.402 496.583 285.898 492.587 285.898 487.6V482.65C285.898 477.663 287.402 473.667 290.408 470.66C293.415 467.653 297.412 466.15 302.398 466.15H324.948V461.75C324.948 460.65 324.582 459.733 323.848 459C323.115 458.267 322.198 457.9 321.098 457.9C316.332 457.9 311.052 458.12 305.258 458.56C299.538 459 294.918 459.33 291.398 459.55V445.8ZM387.618 460.65C382.998 460.65 378.232 461.75 373.318 463.95V503H354.068V444.7H371.118L372.218 451.85C378.525 446.35 385.125 443.6 392.018 443.6H396.968V460.65H387.618ZM420.064 522.8C416.177 522.8 411.411 522.433 405.764 521.7V507.4H415.664C418.451 507.4 420.247 506.63 421.054 505.09C421.934 503.55 421.787 501.387 420.614 498.6L398.064 444.7H418.414L432.164 482.1L443.714 444.7H464.064L442.064 505.2C439.937 510.993 437.187 515.357 433.814 518.29C430.441 521.297 425.857 522.8 420.064 522.8ZM482.248 503H460.798L489.948 426H511.948L541.098 503H519.648L514.698 489.25H487.198L482.248 503ZM492.148 474.95H509.748L500.948 449.1L492.148 474.95ZM577.944 459.55C574.057 459.55 569.657 460.283 564.744 461.75V503H545.494V444.7H562.544L563.644 450.2C567.091 447.927 570.611 446.277 574.204 445.25C577.871 444.15 580.951 443.6 583.444 443.6H588.394C593.381 443.6 597.377 445.103 600.384 448.11C603.391 451.117 604.894 455.113 604.894 460.1V503H585.644V463.4C585.644 462.3 585.277 461.383 584.544 460.65C583.811 459.917 582.894 459.55 581.794 459.55H577.944ZM637.881 488.7C641.768 488.7 646.168 487.967 651.081 486.5V479.9H635.131C634.031 479.9 633.115 480.267 632.381 481C631.648 481.733 631.281 482.65 631.281 483.75V484.85C631.281 485.95 631.648 486.867 632.381 487.6C633.115 488.333 634.031 488.7 635.131 488.7H637.881ZM617.531 445.8C630.951 444.333 643.051 443.6 653.831 443.6C658.818 443.6 662.815 445.103 665.821 448.11C668.828 451.117 670.331 455.113 670.331 460.1V503H653.281L652.181 497.5C648.735 499.773 645.178 501.46 641.511 502.56C637.918 503.587 634.875 504.1 632.381 504.1H628.531C623.545 504.1 619.548 502.597 616.541 499.59C613.535 496.583 612.031 492.587 612.031 487.6V482.65C612.031 477.663 613.535 473.667 616.541 470.66C619.548 467.653 623.545 466.15 628.531 466.15H651.081V461.75C651.081 460.65 650.715 459.733 649.981 459C649.248 458.267 648.331 457.9 647.231 457.9C642.465 457.9 637.185 458.12 631.391 458.56C625.671 459 621.051 459.33 617.531 459.55V445.8ZM699.451 479.9V503H680.201V426H699.451V465.05H708.251L720.351 444.7H740.701L724.201 472.75L740.701 503H720.351L707.701 479.9H699.451ZM783.558 503H743.958V487.6H753.858V441.4H743.958V426H783.558V441.4H773.658V487.6H783.558V503ZM830.85 503H811.05V441.4H787.95V426H853.95V441.4H830.85V503ZM890.813 473.85L859.463 461.2V444.7L908.963 466.7V481L859.463 503V486.5L890.813 473.85Z" fill="white"/>
</svg>
