<svg width="973" height="230" viewBox="0 0 973 230" fill="none" xmlns="http://www.w3.org/2000/svg">
<path fill-rule="evenodd" clip-rule="evenodd" d="M584.766 228.619C602.533 230.369 628.037 230.183 640.846 219.869C647.621 214.414 650.552 209.188 652.503 198.009C655.161 182.733 653.842 56.7687 653.842 34.6885L618.355 35.1141C618.355 67.6797 618.355 100.25 618.355 132.82C618.355 209.967 622.471 193.223 584.766 196.938V228.619ZM349.218 67.8566C370.376 62.3772 393.207 72.2172 395.856 91.5003C399.298 116.578 391.041 131.066 369.735 135.823C318.035 147.36 304.972 79.3127 349.218 67.8566V67.8566ZM518.363 66.9721C567.166 58.1601 577.288 127.04 534.987 136.45C512.137 141.532 494.064 129.325 490.096 111.166C485.491 90.0754 494.939 71.2035 518.363 66.9721V66.9721ZM453.791 108.316C457.578 148.886 492.83 170.775 531.205 168.666C570.202 166.529 599.798 137.344 597.059 96.0569C591.359 10.1747 445.189 16.2469 453.791 108.316V108.316ZM397.754 49.6063C380.039 34.8941 348.238 28.6401 322.854 41.8366C259.769 74.6317 282.404 177.177 366.35 167.509C386.675 165.166 390.95 156.665 398.131 152.921C398.6 162.809 397.821 173.051 393.355 180.916C390.276 186.343 382.669 192.343 373.369 194.543C347.277 200.715 335.434 191.287 320.727 181.461L298.646 202.872C301.324 207.753 305.78 210.584 311.04 214.065C343.553 235.576 396.295 235.662 421.789 200.237C435.856 180.691 432.06 148.446 432.06 122.043C432.06 92.9394 432.06 63.8355 432.06 34.7316H397.706L397.754 49.6063V49.6063ZM710.811 88.1629C716.243 54.1772 775.655 56.1806 778.653 88.1629H710.811ZM813.767 113.356C813.767 76.1426 801.063 45.0114 761.512 36.7158C673.727 18.2981 643.112 131.42 713.938 162.087C748.215 176.933 791.41 166.07 806.662 143.507C802.622 139.051 788.221 129.22 782.55 126.715C762.492 149.087 716.023 143.134 710.103 113.365L813.767 113.356V113.356ZM913.64 89.626L972.025 35.6448L925.775 34.5929L868.796 88.0386L869.106 0.129096L834.757 0L835.14 169.077H868.719L868.824 132.615L891.244 113.207L935.519 169.077L973 168.776L958.532 149.483L916.838 95.0623L913.64 89.626V89.626Z" fill="black"/>
<path d="M114.14 158.047C138.041 158.047 157.416 138.672 157.416 114.771C157.416 90.8705 138.041 71.4952 114.14 71.4952C90.2395 71.4952 70.8643 90.8705 70.8643 114.771C70.8643 138.672 90.2395 158.047 114.14 158.047Z" fill="#00AA13"/>
<path fill-rule="evenodd" clip-rule="evenodd" d="M95.7508 204.641L95.7556 204.631C98.7535 194.318 93.8766 183.546 84.1466 178.994C60.0009 167.7 43.2758 143.191 43.2758 114.771C43.2758 75.6358 75.0047 43.9069 114.14 43.9069C153.28 43.9069 185.004 75.6358 185.004 114.771C185.004 142.986 168.518 167.351 144.649 178.75C134.657 183.526 129.904 194.92 133.538 205.377L133.542 205.387C135.637 211.416 139.763 215.796 145.654 218.253C151.544 220.711 157.559 220.558 163.316 217.804C201.739 199.434 228.28 160.203 228.28 114.771C228.28 51.7339 177.177 0.631104 114.14 0.631104C51.1028 0.631104 0 51.7339 0 114.771C0 160.528 26.9284 199.998 65.8006 218.201C71.7295 220.979 77.9308 221.017 83.8979 218.315C89.8603 215.619 93.9244 210.928 95.7508 204.641V204.641Z" fill="#00AA13"/>
</svg>
