<svg width="973" height="996" viewBox="0 0 973 996" fill="none" xmlns="http://www.w3.org/2000/svg">
<path d="M218.466 405.077C257.154 287.846 367.322 203.651 497.814 203.651C567.96 203.651 631.319 228.542 681.1 269.272L825.919 124.453C737.67 47.5186 624.53 0 497.814 0C301.595 0 132.657 111.938 51.4404 275.873L218.466 405.077Z" fill="#EA4335"/>
<path d="M665.442 747.243C620.231 776.437 562.783 791.977 497.814 791.977C367.822 791.977 257.997 708.426 218.913 591.896L51.3357 719.133C132.451 883.356 301.385 995.628 497.814 995.628C619.481 995.628 735.742 952.376 822.812 871.157L665.442 747.243Z" fill="#34A853"/>
<path d="M822.811 871.157C913.869 786.218 973 659.755 973 497.814C973 468.398 968.474 436.719 961.686 407.302H497.814V599.64H764.823C751.648 664.317 716.284 714.413 665.442 747.243L822.811 871.157Z" fill="#4A90E2"/>
<path d="M218.913 591.896C209.012 562.377 203.651 530.743 203.651 497.814C203.651 465.385 208.851 434.21 218.466 405.077L51.4404 275.873C18.1116 342.68 0 417.972 0 497.814C0 577.445 18.4515 652.558 51.3355 719.133L218.913 591.896Z" fill="#FBBC05"/>
</svg>
