<svg width="973" height="691" viewBox="0 0 973 691" fill="none" xmlns="http://www.w3.org/2000/svg">
<path fill-rule="evenodd" clip-rule="evenodd" d="M486.586 98.5091C506.622 88.4912 530.933 83.0361 553.185 81.1073L578.172 78.9339C605.563 76.5734 632.968 78.0127 660.373 78.0127H675.415V93.0539C675.415 159.797 675.415 226.568 675.415 293.325V300.997C675.415 369.913 619.064 426.263 550.119 426.263H297.585V78.0127H312.612C340.061 78.0127 367.365 76.2136 394.799 78.3438L419.801 80.2293C443.535 82.0141 465.27 87.7859 486.586 98.5091V98.5091Z" fill="#4D4C4B"/>
<path fill-rule="evenodd" clip-rule="evenodd" d="M312.612 93.054V264.61V293.325V300.997V411.251H422.838H440.167H550.119C610.773 411.251 660.373 361.622 660.373 300.997V293.325C660.373 226.957 660.373 162.215 660.373 93.054C634.033 93.054 606.196 92.4062 579.482 93.9176L554.481 96.0766C530.012 99.0416 505.255 104.756 486.5 115.58C466.248 103.878 444.169 98.0629 418.664 95.213L393.662 93.313C366.401 92.0464 338.449 93.054 312.612 93.054V93.054Z" fill="#5FB74E"/>
<path fill-rule="evenodd" clip-rule="evenodd" d="M343.789 411.251H422.838H440.167H550.119C576.992 411.251 601.677 401.506 620.834 385.4C598.453 333.368 546.722 296.952 486.486 296.952C416.706 296.952 358.34 345.832 343.789 411.251V411.251Z" fill="#89C45F"/>
<path fill-rule="evenodd" clip-rule="evenodd" d="M486.5 411.251L551.415 410.287C577.913 410.287 602.051 400.931 620.849 385.415C645.044 365.408 660.373 335.124 660.373 300.997V293.325C660.373 226.957 660.373 162.215 660.373 93.054C634.033 93.054 606.196 92.4063 579.482 93.9176L554.48 96.0766C530.012 99.0417 505.255 104.756 486.5 115.58V411.251V411.251Z" fill="#4A9E4B"/>
<path fill-rule="evenodd" clip-rule="evenodd" d="M486.5 411.251H550.522C577.395 411.251 601.677 401.506 620.849 385.415C598.712 333.958 545.859 297.773 486.5 296.981V411.251Z" fill="#5FB74E"/>
<path fill-rule="evenodd" clip-rule="evenodd" d="M579.482 83.4966C574.703 36.5739 535.035 0 486.888 0C438.757 0 399.117 36.2572 393.662 82.9209L418.663 84.8208C423.082 51.1257 451.797 25.0591 486.788 25.0591C521.764 25.0591 550.738 51.5575 554.48 85.6557L579.482 83.4966Z" fill="#4D4C4B"/>
<path fill-rule="evenodd" clip-rule="evenodd" d="M527.162 311.619C516.266 323.148 505.384 334.663 494.503 346.207L486.486 354.699L478.483 346.207C467.601 334.692 456.72 323.148 445.824 311.619L440.196 305.631L444.313 298.535C453.049 283.465 469.386 275.362 486.486 275.362C503.614 275.362 519.936 283.465 528.673 298.535L532.804 305.631L527.162 311.619Z" fill="#4D4C4B"/>
<path fill-rule="evenodd" clip-rule="evenodd" d="M519.144 304.063C508.277 315.592 497.367 327.107 486.485 338.65C475.604 327.107 464.723 315.592 453.827 304.063C460.707 292.217 473.618 286.359 486.485 286.373C499.368 286.359 512.264 292.217 519.144 304.063Z" fill="#FDF8B4"/>
<path fill-rule="evenodd" clip-rule="evenodd" d="M519.144 304.063C508.277 315.592 497.367 327.107 486.486 338.65V286.373C499.368 286.359 512.264 292.217 519.144 304.063Z" fill="#FCD066"/>
<path fill-rule="evenodd" clip-rule="evenodd" d="M404.889 136.422C453.668 136.422 493.236 176.004 493.236 224.754C493.236 273.534 453.668 313.102 404.889 313.102C356.109 313.102 316.556 273.534 316.556 224.754C316.556 176.004 356.109 136.422 404.889 136.422Z" fill="#4D4C4B"/>
<path fill-rule="evenodd" clip-rule="evenodd" d="M404.889 151.448C445.378 151.448 478.209 184.28 478.209 224.754C478.209 265.243 445.378 298.075 404.889 298.075C364.386 298.075 331.583 265.243 331.583 224.754C331.583 184.28 364.386 151.448 404.889 151.448Z" fill="#EEEFEE"/>
<path fill-rule="evenodd" clip-rule="evenodd" d="M404.889 151.448C438.296 151.448 466.507 173.816 475.331 204.388C466.507 234.945 438.296 257.313 404.889 257.313C371.467 257.313 343.299 234.945 334.461 204.388C343.299 173.816 371.467 151.448 404.889 151.448Z" fill="#FEFEFE"/>
<path fill-rule="evenodd" clip-rule="evenodd" d="M568.097 136.422C616.876 136.422 656.43 176.004 656.43 224.754C656.43 273.534 616.876 313.102 568.097 313.102C519.317 313.102 479.75 273.563 479.75 224.754C479.75 176.004 519.317 136.422 568.097 136.422Z" fill="#4D4C4B"/>
<path fill-rule="evenodd" clip-rule="evenodd" d="M568.097 151.448C608.571 151.448 641.403 184.28 641.403 224.754C641.403 265.243 608.571 298.075 568.097 298.075C527.608 298.075 494.791 265.243 494.791 224.754C494.791 184.28 527.608 151.448 568.097 151.448Z" fill="#EEEFEE"/>
<path fill-rule="evenodd" clip-rule="evenodd" d="M568.097 151.448C601.504 151.448 629.701 173.816 638.524 204.388C629.701 234.945 601.504 257.313 568.097 257.313C534.675 257.313 506.478 234.945 497.641 204.388C506.478 173.816 534.675 151.448 568.097 151.448Z" fill="#FEFEFE"/>
<path fill-rule="evenodd" clip-rule="evenodd" d="M414.101 179.17C440.254 179.17 461.455 200.372 461.455 226.482C461.455 252.649 440.254 273.851 414.101 273.851C387.948 273.851 366.746 252.649 366.746 226.482C366.746 217.774 369.121 209.612 373.238 202.588C376.62 210.951 384.796 216.824 394.382 216.824C406.976 216.824 417.195 206.633 417.195 194.039C417.195 188.368 415.123 183.186 411.711 179.213C412.503 179.17 413.309 179.17 414.101 179.17V179.17Z" fill="#4D4C4B"/>
<path fill-rule="evenodd" clip-rule="evenodd" d="M558.87 179.17C585.038 179.17 606.225 200.372 606.225 226.482C606.225 252.649 585.038 273.851 558.856 273.851C532.732 273.851 511.53 252.649 511.53 226.482C511.53 217.774 513.891 209.612 517.993 202.588C521.39 210.951 529.58 216.824 539.166 216.824C551.746 216.824 561.951 206.633 561.951 194.039C561.951 188.368 559.907 183.186 556.496 179.213C557.287 179.17 558.064 179.17 558.87 179.17V179.17Z" fill="#4D4C4B"/>
<path fill-rule="evenodd" clip-rule="evenodd" d="M520.181 628.794C509.616 639.517 496.964 644.915 482.297 644.915C470.451 644.915 460.376 642.497 450.084 636.523V611.925C458.361 617.524 468.753 622.878 479.001 622.878C500.39 622.878 513.128 608.154 513.128 587.298C513.128 566.427 499.943 551.271 478.569 551.271C468.997 551.271 461.268 554.711 455.209 561.591C448.717 569.047 445.378 579.712 445.378 593.803V690.945H443.766C431.977 690.945 422.42 681.388 422.42 669.614V590.162C422.42 556.452 443.032 529.234 478.454 529.234C495.942 529.234 510.148 535.208 520.915 547.226C531.048 558.453 536.071 572.674 536.071 589.788C536.071 605.03 530.774 618.057 520.181 628.794V628.794ZM33.58 642.655C11.1406 642.655 0 627.384 0 606.067V525.175C0 513.387 9.55728 503.844 21.3455 503.844H22.9432V531.508H61.7193V553.545H22.9432V608.614C22.9432 617.985 27.1317 620.619 36.0701 620.619H61.7193V642.655H33.58V642.655ZM166.864 628.593C155.507 639.474 141.891 644.915 126.058 644.915C110.384 644.915 96.825 639.46 85.4973 628.593C74.1121 617.682 68.441 603.807 68.441 587.082C68.441 554.437 93.3706 529.234 126.058 529.234C141.747 529.234 155.335 534.733 166.734 545.672C178.191 556.654 183.906 570.486 183.906 587.082C183.906 603.807 178.22 617.682 166.864 628.593ZM274.138 558.252C270.77 563.894 268.165 567.938 266.323 570.385C264.293 573.048 262.307 575.164 260.321 576.632C276.269 581.799 282.213 592.839 282.213 609.305V642.655H280.601C268.813 642.655 259.256 633.098 259.256 621.309V611.565C259.256 600.914 254.491 593.674 243.192 593.674H222.351V642.655H220.739C208.95 642.655 199.393 633.098 199.393 621.309V502.966C199.393 491.178 208.95 481.621 220.739 481.621H222.351V571.407H229.13C236.586 571.407 241.48 568.86 244.286 564.038L263.574 531.508L289.727 531.48L274.138 558.252V558.252ZM392.597 628.593C381.255 639.474 367.624 644.915 351.806 644.915C336.117 644.915 322.573 639.46 311.23 628.593C299.86 617.682 294.189 603.807 294.189 587.082C294.189 554.437 319.118 529.234 351.806 529.234C367.495 529.234 381.082 534.733 392.482 545.672C403.925 556.654 409.653 570.486 409.653 587.082C409.653 603.807 403.968 617.682 392.597 628.593ZM376.03 561.217C369.711 554.596 361.665 551.271 351.806 551.271C330.676 551.271 318.039 566.672 318.039 587.082C318.039 607.204 330.993 622.878 351.806 622.878C372.633 622.878 385.558 607.204 385.558 587.082C385.558 576.387 382.349 567.823 376.03 561.217V561.217ZM150.282 561.217C143.964 554.596 135.932 551.271 126.058 551.271C104.943 551.271 92.3055 566.672 92.3055 587.082C92.3055 607.204 105.245 622.878 126.058 622.878C146.871 622.878 159.825 607.204 159.825 587.082C159.825 576.387 156.616 567.823 150.282 561.217V561.217ZM768.656 627.974C758.12 639.273 744.561 644.915 728.123 644.915C710.779 644.915 696.645 638.927 685.893 626.923C675.774 615.552 670.737 601.317 670.737 584.361C670.737 554.322 693.925 529.234 724.41 529.234C736.184 529.234 746.403 531.71 756.723 537.381V562.224C748.433 556.611 738.055 551.271 727.807 551.271C706.418 551.271 693.694 565.981 693.694 586.851C693.694 607.434 707.167 622.878 728.239 622.878C737.782 622.878 745.655 619.294 751.93 612.098C758.177 604.93 761.43 594.408 761.43 580.274V502.966C761.43 491.178 770.987 481.621 782.776 481.621H784.373V583.901C784.373 601.921 779.177 616.66 768.656 627.974V627.974ZM833.455 518.31C831.037 521.016 827.582 522.253 823.365 522.253C815.492 522.253 809.864 516.438 809.864 508.623C809.864 500.62 815.406 495.222 823.365 495.222C831.051 495.222 836.895 500.922 836.895 508.623C836.895 512.437 835.772 515.704 833.455 518.31ZM950.042 580.274C950.042 571.234 946.631 564.067 939.737 558.64C933.547 553.761 925.804 551.271 916.405 551.271C895.635 551.271 882.307 567.507 882.307 587.528C882.307 606.801 896.427 622.878 916.189 622.878C929.92 622.878 937.275 614.847 945.105 604.858V633.688C941.118 636.667 936.527 639.935 931.835 641.849C926.883 643.907 920.996 644.915 914.159 644.915C881.141 644.915 859.349 617.553 859.349 585.945C859.349 569.709 864.401 556.294 874.548 545.816C885.315 534.733 899.449 529.234 916.736 529.234C949.539 529.234 973 548.061 973 582.087V642.655H971.388C959.6 642.655 950.042 633.098 950.042 621.309V580.274V580.274ZM635.919 573.782C633.011 564.801 629.37 560.396 621.007 555.733C601.13 544.607 581.555 554.063 572.444 573.696L635.919 573.782ZM618.402 644.584C603.749 647.693 589.356 645.289 575.337 637.459C561.648 629.802 552.465 618.431 547.874 603.418C538.59 573.034 557.618 539.18 588.219 530.976C603.39 526.917 617.941 528.759 631.759 536.489C654.717 549.313 663.079 569.162 661.626 594.739L569.162 594.538C570.529 604.973 576.992 613.134 586.089 618.215C595.3 623.368 603.778 624.591 611.637 622.159C620.359 619.41 627.441 612.299 633.198 605.664L652.04 619.381C644.353 633.141 633.889 641.273 618.402 644.584ZM811.908 531.508H834.851V642.655H833.239C821.465 642.655 811.908 633.098 811.908 621.309V531.508Z" fill="#3CAF41"/>
</svg>
